<svg width="115" height="115" viewBox="0 0 115 115" fill="none" xmlns="http://www.w3.org/2000/svg">
<path d="M94.4641 0H20.5356C9.19967 0.0134766 0.0134766 9.19967 0 20.5356V94.4641C0.0134766 105.8 9.19967 114.986 20.5356 115H94.4641C105.8 114.986 114.986 105.8 115 94.4641V20.5356C114.986 9.19967 105.8 0.0134766 94.4641 0ZM78.0357 61.6071H61.6071V78.0357C61.6071 80.3041 59.7683 82.143 57.4999 82.143C55.2315 82.143 53.3927 80.3041 53.3927 78.0357V61.6071H36.9643C34.6959 61.6071 32.857 59.7683 32.857 57.4999C32.857 55.2315 34.6959 53.3927 36.9643 53.3927H53.3929V36.9643C53.3929 34.6959 55.2317 32.857 57.5001 32.857C59.7685 32.857 61.6071 34.6959 61.6071 36.9643V53.3929H78.0357C80.3041 53.3929 82.143 55.2317 82.143 57.5001C82.143 59.7685 80.3039 61.6071 78.0357 61.6071Z" fill="#313131"/>
</svg>
