<svg width="106" height="106" viewBox="0 0 106 106" fill="none" xmlns="http://www.w3.org/2000/svg">
<g clip-path="url(#clip0)">
<path d="M102.629 0.327527C101.085 -0.436625 99.2294 0.181985 98.459 1.71339L70.1123 58.4565L64.5602 55.6755C59.9626 53.3737 54.3583 55.2479 52.0563 59.8333L50.6665 62.6085L83.9896 79.2986L85.3794 76.5221C87.6748 71.9378 85.8405 66.3403 81.2216 64.0213L75.6684 61.2398L104.015 4.49734C104.782 2.96283 104.16 1.09768 102.629 0.327527V0.327527Z" fill="#2980B9"/>
<path d="M35.8164 106C37.5315 106 38.9219 104.61 38.9219 102.895C38.9219 101.179 37.5315 99.7891 35.8164 99.7891C34.1013 99.7891 32.7109 101.179 32.7109 102.895C32.7109 104.61 34.1013 106 35.8164 106Z" fill="#2980B9"/>
<path d="M4.76172 87.3672C6.47682 87.3672 7.86719 85.9768 7.86719 84.2617C7.86719 82.5466 6.47682 81.1562 4.76172 81.1562C3.04662 81.1562 1.65625 82.5466 1.65625 84.2617C1.65625 85.9768 3.04662 87.3672 4.76172 87.3672Z" fill="#2980B9"/>
<path d="M17.1836 93.5781C18.8987 93.5781 20.2891 92.1878 20.2891 90.4727C20.2891 88.7576 18.8987 87.3672 17.1836 87.3672C15.4685 87.3672 14.0781 88.7576 14.0781 90.4727C14.0781 92.1878 15.4685 93.5781 17.1836 93.5781Z" fill="#2980B9"/>
<path d="M23.3945 99.7891H10.9727C9.25927 99.7891 7.86719 98.397 7.86719 96.6836C7.86719 94.9671 6.47821 93.5781 4.76172 93.5781C3.04522 93.5781 1.65625 94.9671 1.65625 96.6836C1.65625 101.821 5.83538 106 10.9727 106H23.3945C25.111 106 26.5 104.611 26.5 102.895C26.5 101.178 25.111 99.7891 23.3945 99.7891Z" fill="#2980B9"/>
<path d="M22.4908 80.3435C21.132 80.5132 20.0464 81.5535 19.8159 82.9001C19.5855 84.2497 20.2617 85.59 21.484 86.2026L36.323 93.6328C39.0009 94.9733 41.9606 95.507 44.8479 95.2006C44.5081 96.5774 45.1541 98.0544 46.4735 98.7185L60.3572 105.672C61.524 106.248 62.8766 106.045 63.8115 105.218C64.2974 104.785 74.8745 95.2685 81.0572 84.7799L47.5999 68.0228C40.1038 77.9829 22.681 80.3184 22.4908 80.3435V80.3435Z" fill="#2980B9"/>
</g>
<defs>
<clipPath id="clip0">
<rect width="106" height="106" fill="white"/>
</clipPath>
</defs>
</svg>
