<svg width="108" height="108" viewBox="0 0 108 108" fill="none" xmlns="http://www.w3.org/2000/svg">
<g clip-path="url(#clip0)">
<path d="M92.1838 15.8162C81.9846 5.61703 68.4237 0 54 0C39.5755 0 26.0154 5.61703 15.8162 15.8162C5.61703 26.0154 0 39.5755 0 54C0 68.4237 5.61703 81.9846 15.8162 92.1838C26.0154 102.383 39.5755 108 54 108C68.4237 108 81.9846 102.383 92.1838 92.1838C102.383 81.9846 108 68.4237 108 54C108 39.5755 102.383 26.0154 92.1838 15.8162V15.8162ZM27.0717 93.3159C29.3302 80.312 40.5989 70.7201 54 70.7201C67.4019 70.7201 78.6698 80.312 80.9283 93.3159C73.2612 98.5836 63.9849 101.672 54 101.672C44.0151 101.672 34.7388 98.5836 27.0717 93.3159ZM36.83 47.222C36.83 37.7537 44.5325 30.052 54 30.052C63.4675 30.052 71.17 37.7545 71.17 47.222C71.17 56.6895 63.4675 64.392 54 64.392C44.5325 64.392 36.83 56.6895 36.83 47.222V47.222ZM86.4094 88.9266C84.7062 82.8729 81.3238 77.3803 76.5827 73.0898C73.674 70.4572 70.3633 68.38 66.8037 66.9158C73.2373 62.7193 77.4989 55.4593 77.4989 47.222C77.4989 34.265 66.957 23.7239 54 23.7239C41.043 23.7239 30.5019 34.265 30.5019 47.222C30.5019 55.4593 34.7635 62.7193 41.1963 66.9158C37.6375 68.38 34.326 70.4564 31.4173 73.089C26.677 77.3795 23.2938 82.8721 21.5906 88.9258C12.2097 80.2139 6.32812 67.7818 6.32812 54C6.32812 27.7136 27.7136 6.32812 54 6.32812C80.2864 6.32812 101.672 27.7136 101.672 54C101.672 67.7826 95.7903 80.2148 86.4094 88.9266V88.9266Z" fill="white"/>
</g>
<defs>
<clipPath id="clip0">
<rect width="108" height="108" fill="white"/>
</clipPath>
</defs>
</svg>
