<svg width="106" height="106" viewBox="0 0 106 106" fill="none" xmlns="http://www.w3.org/2000/svg">
<path d="M40.8539 35.3336H7.7289C3.46696 35.3336 0 31.8666 0 27.6039V7.7289C0 3.46696 3.46696 0 7.7289 0H40.8539C45.1166 0 48.5836 3.46696 48.5836 7.7289V27.6039C48.5836 31.8666 45.1166 35.3336 40.8539 35.3336ZM7.7289 6.625C7.11993 6.625 6.625 7.11993 6.625 7.7289V27.6039C6.625 28.2137 7.11993 28.7086 7.7289 28.7086H40.8539C41.4637 28.7086 41.9586 28.2137 41.9586 27.6039V7.7289C41.9586 7.11993 41.4637 6.625 40.8539 6.625H7.7289Z" fill="#313131"/>
<path d="M40.8539 106H7.7289C3.46696 106 0 102.533 0 98.2711V51.8961C0 47.6334 3.46696 44.1664 7.7289 44.1664H40.8539C45.1166 44.1664 48.5836 47.6334 48.5836 51.8961V98.2711C48.5836 102.533 45.1166 106 40.8539 106ZM7.7289 50.7914C7.11993 50.7914 6.625 51.2863 6.625 51.8961V98.2711C6.625 98.8801 7.11993 99.375 7.7289 99.375H40.8539C41.4637 99.375 41.9586 98.8801 41.9586 98.2711V51.8961C41.9586 51.2863 41.4637 50.7914 40.8539 50.7914H7.7289Z" fill="#313131"/>
<path d="M98.2712 106H65.1462C60.8835 106 57.4165 102.533 57.4165 98.2711V78.3961C57.4165 74.1334 60.8835 70.6664 65.1462 70.6664H98.2712C102.533 70.6664 106 74.1334 106 78.3961V98.2711C106 102.533 102.533 106 98.2712 106V106ZM65.1462 77.2914C64.5364 77.2914 64.0415 77.7863 64.0415 78.3961V98.2711C64.0415 98.8801 64.5364 99.375 65.1462 99.375H98.2712C98.8802 99.375 99.3751 98.8801 99.3751 98.2711V78.3961C99.3751 77.7863 98.8802 77.2914 98.2712 77.2914H65.1462Z" fill="#313131"/>
<path d="M98.2712 61.8336H65.1462C60.8835 61.8336 57.4165 58.3666 57.4165 54.1039V7.7289C57.4165 3.46696 60.8835 0 65.1462 0H98.2712C102.533 0 106 3.46696 106 7.7289V54.1039C106 58.3666 102.533 61.8336 98.2712 61.8336V61.8336ZM65.1462 6.625C64.5364 6.625 64.0415 7.11993 64.0415 7.7289V54.1039C64.0415 54.7137 64.5364 55.2086 65.1462 55.2086H98.2712C98.8802 55.2086 99.3751 54.7137 99.3751 54.1039V7.7289C99.3751 7.11993 98.8802 6.625 98.2712 6.625H65.1462Z" fill="#313131"/>
</svg>
