<svg width="108" height="108" viewBox="0 0 108 108" fill="none" xmlns="http://www.w3.org/2000/svg">
<g clip-path="url(#clip0)">
<path d="M107.656 47.7801C107.427 47.231 107.098 46.7315 106.68 46.313L93.1844 32.8174C91.4249 31.0624 88.5809 31.0624 86.8214 32.8174C85.062 34.5769 85.062 37.4254 86.8214 39.1804L92.6399 44.9989H67.5027C65.0143 44.9989 63.0028 47.0148 63.0028 49.4988C63.0028 51.9828 65.0143 53.9987 67.5027 53.9987H92.6397L86.8212 59.8172C85.0618 61.5767 85.0618 64.4252 86.8212 66.1802C87.6987 67.0621 88.8507 67.4987 90.0028 67.4987C91.1549 67.4987 92.3069 67.0623 93.1844 66.1802L106.68 52.6846C107.098 52.2705 107.427 51.771 107.656 51.2175C108.111 50.12 108.111 48.878 107.656 47.7801Z" fill="#5C5C5C"/>
<path d="M76.5028 63.0001C74.0144 63.0001 72.0029 65.016 72.0029 67.5V90.0001H54.0029V17.9999C54.0029 16.0154 52.6979 14.2604 50.7944 13.689L35.1658 9.00007H72.0029V31.5001C72.0029 33.9841 74.0144 36.0001 76.5028 36.0001C78.9912 36.0001 81.0027 33.9841 81.0027 31.5001V4.50014C81.0027 2.01593 78.9912 0 76.5028 0H4.50286C4.34086 0 4.19679 0.0675 4.03943 0.0854297C3.82786 0.108 3.63443 0.143859 3.43193 0.19343C2.95943 0.31493 2.53186 0.4995 2.1315 0.751359C2.03257 0.81443 1.91107 0.818859 1.81657 0.890789C1.78029 0.918 1.76679 0.96757 1.73072 0.99457C1.24029 1.38143 0.830859 1.85393 0.533859 2.4165C0.470789 2.538 0.457289 2.66857 0.40793 2.7945C0.263859 3.13643 0.1065 3.4695 0.0525 3.8475C0.0299297 3.9825 0.0704297 4.10843 0.066 4.239C0.0615703 4.32907 0.00292969 4.41007 0.00292969 4.49993V94.5C0.00292969 96.6465 1.51936 98.4916 3.62093 98.9101L48.6209 107.91C48.9134 107.973 49.2104 108 49.5028 108C50.5332 108 51.5457 107.645 52.3557 106.979C53.3952 106.124 54.0027 104.85 54.0027 103.5V99.0001H76.5028C78.9912 99.0001 81.0027 96.9842 81.0027 94.5002V67.5C81.0027 65.016 78.9912 63.0001 76.5028 63.0001Z" fill="#5C5C5C"/>
</g>
<defs>
<clipPath id="clip0">
<rect width="108" height="108" fill="white"/>
</clipPath>
</defs>
</svg>
