<svg width="108" height="108" viewBox="0 0 108 108" fill="none" xmlns="http://www.w3.org/2000/svg">
<path d="M101.177 31.1652C100.923 30.2135 100.312 29.4175 99.4587 28.9248L96.3548 27.1327C95.5011 26.6399 94.5066 26.5089 93.5541 26.7643C92.6024 27.019 91.8064 27.6295 91.3137 28.4832L89.4614 31.6909C88.6753 31.3217 87.7928 31.2402 86.9433 31.4676C85.9916 31.723 85.1957 32.3336 84.7029 33.1872L84.5859 33.3891V19.7227C84.5859 15.3605 81.0379 11.8125 76.6758 11.8125H65.1377C64.8798 10.0269 63.3439 8.64844 61.4883 8.64844H56.1094V4.74609C56.1094 2.12915 53.9802 0 51.3633 0H39.7617C37.1448 0 35.0156 2.12915 35.0156 4.74609V8.64844H29.6367C27.7811 8.64844 26.2444 10.0269 25.9873 11.8125H14.4492C10.0871 11.8125 6.53906 15.3605 6.53906 19.7227V100.09C6.53906 104.452 10.0871 108 14.4492 108H63.8185C64.6919 108 65.4005 107.292 65.4005 106.418C65.4005 105.544 64.6919 104.836 63.8185 104.836H14.4492C11.8323 104.836 9.70312 102.707 9.70312 100.09V19.7227C9.70312 17.1057 11.8323 14.9766 14.4492 14.9766H25.9453V22.6758C25.9453 24.711 27.6015 26.3672 29.6367 26.3672H61.4883C63.5235 26.3672 65.1797 24.711 65.1797 22.6758V21.1992H75.1992V49.6478L59.1012 77.5302C58.5195 78.5371 58.2558 79.6825 58.3391 80.8426L59.0444 90.7254C59.1062 91.5897 59.589 92.3684 60.3355 92.8084C60.7475 93.0506 61.2098 93.1734 61.6745 93.1734C62.0519 93.1734 62.4301 93.0918 62.7827 92.9287L71.8778 88.7108C72.9671 88.2057 73.8603 87.3891 74.4601 86.3501L75.1992 85.0704V98.6133H15.9258V21.1992H20.1445C21.0179 21.1992 21.7266 20.4914 21.7266 19.6172C21.7266 18.743 21.0179 18.0352 20.1445 18.0352H15.3984C13.9441 18.0352 12.7617 19.2176 12.7617 20.6719V99.1406C12.7617 100.595 13.9441 101.777 15.3984 101.777H75.7266C77.1801 101.777 78.3633 100.595 78.3633 99.1406V79.5894L81.4219 74.292V100.09C81.4219 102.707 79.2927 104.836 76.6758 104.836H71.2005C70.3271 104.836 69.6184 105.544 69.6184 106.418C69.6184 107.291 70.3271 108 71.2005 108H76.6758C81.0371 108 84.5859 104.451 84.5859 100.09V68.8118L97.9327 45.6943L100.041 42.0425C100.534 41.1888 100.665 40.1943 100.41 39.2426C100.182 38.3931 99.6704 37.6705 98.9569 37.1736L100.809 33.9659C101.302 33.1122 101.433 32.1177 101.177 31.1652V31.1652ZM94.0534 30.0652C94.1984 29.8139 94.5206 29.7274 94.7727 29.8724L97.8766 31.6645C98.0406 31.7593 98.1008 31.9059 98.1222 31.9842C98.1428 32.0633 98.1642 32.2191 98.0695 32.3839L96.2246 35.5784L92.2094 33.2606L94.0534 30.0652ZM87.4427 34.7693C87.5374 34.6053 87.6841 34.5451 87.7624 34.5245C87.8415 34.5023 87.9972 34.4817 88.1612 34.5764L97.1079 39.7419C97.2727 39.8367 97.3328 39.9825 97.3534 40.0616C97.3748 40.1399 97.3954 40.2965 97.3007 40.4604L95.9832 42.742L86.1259 37.0508L87.4427 34.7693ZM38.1797 4.74609C38.1797 3.8735 38.8891 3.16406 39.7617 3.16406H51.3633C52.2359 3.16406 52.9453 3.8735 52.9453 4.74609V8.64844H38.1797V4.74609ZM62.0156 22.6758C62.0156 22.9666 61.7791 23.2031 61.4883 23.2031H29.6367C29.3459 23.2031 29.1094 22.9666 29.1094 22.6758V12.3398C29.1094 12.049 29.3459 11.8125 29.6367 11.8125H61.4883C61.7791 11.8125 62.0156 12.049 62.0156 12.3398V22.6758ZM75.7266 18.0352H65.1797V14.9766H76.6758C79.2927 14.9766 81.4219 17.1057 81.4219 19.7227V38.8702L78.3633 44.1675V20.6719C78.3633 19.2176 77.1809 18.0352 75.7266 18.0352ZM84.5439 39.7914L94.4011 45.4826L75.0064 79.076L65.1484 73.3848L84.5439 39.7914ZM71.7204 84.768C71.4477 85.2402 71.0414 85.611 70.5471 85.84V85.8409L62.1458 89.7366L61.4949 80.6177C61.457 80.0903 61.5773 79.5704 61.8418 79.1131L63.5663 76.1245L73.4244 81.8157L71.7204 84.768Z" fill="#E6E6E6"/>
<path d="M22.8802 88.2642C23.1809 88.5319 23.5567 88.663 23.9299 88.663C24.3666 88.663 24.8009 88.4833 25.1132 88.1315L28.25 84.5999L30.6783 87.4962C31.1653 88.0779 31.8796 88.4207 32.6377 88.4388C33.3966 88.452 34.125 88.1471 34.6383 87.5893L37.5585 84.4187L40.795 88.0821C41.3743 88.7371 42.3738 88.7989 43.028 88.2205C43.6831 87.6421 43.7449 86.6426 43.1664 85.9875L39.5426 81.8858C39.049 81.3271 38.3388 81.0025 37.5939 80.9951C37.5848 80.9942 37.5758 80.9942 37.5667 80.9942C36.8309 80.9942 36.1256 81.3032 35.6271 81.8446L32.7176 85.0037L30.282 82.0992C29.7892 81.5117 29.0666 81.1681 28.2986 81.1566C27.5307 81.1393 26.7998 81.4688 26.2906 82.0423L22.7484 86.0304C22.1675 86.6838 22.2268 87.6841 22.8802 88.2642V88.2642Z" fill="#E6E6E6"/>
<path d="M69.5566 34.9102C69.5566 34.0359 68.848 33.3281 67.9746 33.3281H23.0449C22.1715 33.3281 21.4629 34.0359 21.4629 34.9102C21.4629 35.7844 22.1715 36.4922 23.0449 36.4922H67.9746C68.848 36.4922 69.5566 35.7844 69.5566 34.9102Z" fill="#E6E6E6"/>
<path d="M23.2559 44.9297H42.0293C42.9027 44.9297 43.6113 44.2219 43.6113 43.3477C43.6113 42.4734 42.9027 41.7656 42.0293 41.7656H23.2559C22.3824 41.7656 21.6738 42.4734 21.6738 43.3477C21.6738 44.2219 22.3824 44.9297 23.2559 44.9297Z" fill="#E6E6E6"/>
<path d="M58.377 43.3477C58.377 42.4734 57.6683 41.7656 56.7949 41.7656H49.4121C48.5387 41.7656 47.8301 42.4734 47.8301 43.3477C47.8301 44.2219 48.5387 44.9297 49.4121 44.9297H56.7949C57.6683 44.9297 58.377 44.2219 58.377 43.3477Z" fill="#E6E6E6"/>
<path d="M23.2559 53.3672H38.4434C39.3168 53.3672 40.0254 52.6594 40.0254 51.7852C40.0254 50.9109 39.3168 50.2031 38.4434 50.2031H23.2559C22.3824 50.2031 21.6738 50.9109 21.6738 51.7852C21.6738 52.6594 22.3824 53.3672 23.2559 53.3672Z" fill="#E6E6E6"/>
<path d="M52.3652 50.2031H45.1934C44.3199 50.2031 43.6113 50.9109 43.6113 51.7852C43.6113 52.6594 44.3199 53.3672 45.1934 53.3672H52.3652C53.2386 53.3672 53.9473 52.6594 53.9473 51.7852C53.9473 50.9109 53.2386 50.2031 52.3652 50.2031Z" fill="#E6E6E6"/>
<path d="M23.2559 61.8047H34.2246C35.098 61.8047 35.8066 61.0969 35.8066 60.2227C35.8066 59.3484 35.098 58.6406 34.2246 58.6406H23.2559C22.3824 58.6406 21.6738 59.3484 21.6738 60.2227C21.6738 61.0969 22.3824 61.8047 23.2559 61.8047Z" fill="#E6E6E6"/>
<path d="M53.9473 60.2227C53.9473 59.3484 53.2386 58.6406 52.3652 58.6406H40.9746C40.1012 58.6406 39.3926 59.3484 39.3926 60.2227C39.3926 61.0969 40.1012 61.8047 40.9746 61.8047H52.3652C53.2386 61.8047 53.9473 61.0969 53.9473 60.2227Z" fill="#E6E6E6"/>
<path d="M23.2559 70.2422H34.2246C35.098 70.2422 35.8066 69.5344 35.8066 68.6602C35.8066 67.7859 35.098 67.0781 34.2246 67.0781H23.2559C22.3824 67.0781 21.6738 67.7859 21.6738 68.6602C21.6738 69.5344 22.3824 70.2422 23.2559 70.2422Z" fill="#E6E6E6"/>
</svg>
