<svg width="117" height="117" viewBox="0 0 117 117" fill="none" xmlns="http://www.w3.org/2000/svg">
<path d="M79.0664 27.4219H101.052L75.6387 2.00842V23.9941C75.6387 25.8853 77.1752 27.4219 79.0664 27.4219Z" fill="#313131"/>
<path d="M24.2227 117H92.7773C98.4477 117 103.061 112.387 103.061 106.717V34.2773H79.0664C73.396 34.2773 68.7832 29.6645 68.7832 23.9941V0H24.2227C18.5523 0 13.9395 4.61282 13.9395 10.2832V106.717C13.9395 112.387 18.5523 117 24.2227 117ZM44.7891 55.0723H79.0664C80.961 55.0723 82.4941 56.6054 82.4941 58.5C82.4941 60.3946 80.961 61.9277 79.0664 61.9277H44.7891C42.8944 61.9277 41.3613 60.3946 41.3613 58.5C41.3613 56.6054 42.8944 55.0723 44.7891 55.0723ZM44.7891 68.7832H79.0664C80.961 68.7832 82.4941 70.3163 82.4941 72.2109C82.4941 74.1056 80.961 75.6387 79.0664 75.6387H44.7891C42.8944 75.6387 41.3613 74.1056 41.3613 72.2109C41.3613 70.3163 42.8944 68.7832 44.7891 68.7832ZM44.7891 82.4941H79.0664C80.961 82.4941 82.4941 84.0273 82.4941 85.9219C82.4941 87.8165 80.961 89.3496 79.0664 89.3496H44.7891C42.8944 89.3496 41.3613 87.8165 41.3613 85.9219C41.3613 84.0273 42.8944 82.4941 44.7891 82.4941ZM31.0781 55.0723C32.9711 55.0723 34.5059 56.607 34.5059 58.5C34.5059 60.393 32.9711 61.9277 31.0781 61.9277C29.1851 61.9277 27.6504 60.393 27.6504 58.5C27.6504 56.607 29.1851 55.0723 31.0781 55.0723ZM31.0781 68.7832C32.9711 68.7832 34.5059 70.3179 34.5059 72.2109C34.5059 74.104 32.9711 75.6387 31.0781 75.6387C29.1851 75.6387 27.6504 74.104 27.6504 72.2109C27.6504 70.3179 29.1851 68.7832 31.0781 68.7832ZM31.0781 82.4941C32.9711 82.4941 34.5059 84.0289 34.5059 85.9219C34.5059 87.8149 32.9711 89.3496 31.0781 89.3496C29.1851 89.3496 27.6504 87.8149 27.6504 85.9219C27.6504 84.0289 29.1851 82.4941 31.0781 82.4941Z" fill="#313131"/>
</svg>
