<svg width="106" height="106" viewBox="0 0 106 106" fill="none" xmlns="http://www.w3.org/2000/svg">
<g clip-path="url(#clip0)">
<path d="M90.4767 15.5233C80.4664 5.51302 67.1566 0 53 0C38.8434 0 25.5336 5.51302 15.5233 15.5233C5.51302 25.5336 0 38.8434 0 53C0 67.1574 5.51302 80.4664 15.5233 90.4767C25.5336 100.487 38.8434 106 53 106C67.1566 106 80.4664 100.487 90.4767 90.4767C100.487 80.4664 106 67.1574 106 53C106 38.8434 100.487 25.5336 90.4767 15.5233V15.5233ZM75.9239 68.6034C77.9448 70.6252 77.9448 73.9021 75.9239 75.923C74.913 76.9339 73.5883 77.4394 72.2636 77.4394C70.9389 77.4394 69.6143 76.9339 68.6034 75.923L53 60.3197L37.3966 75.9239C36.3857 76.9339 35.0611 77.4394 33.7364 77.4394C32.4117 77.4394 31.087 76.9339 30.0761 75.9239C28.0552 73.9021 28.0552 70.6252 30.0761 68.6042L45.6803 53L30.0761 37.3966C28.0552 35.3748 28.0552 32.0979 30.0761 30.077C32.0979 28.0552 35.3748 28.0552 37.3958 30.077L53 45.6803L68.6034 30.077C70.6252 28.056 73.9021 28.0552 75.923 30.077C77.9448 32.0979 77.9448 35.3748 75.923 37.3966L60.3197 53L75.9239 68.6034Z" fill="white"/>
</g>
<defs>
<clipPath id="clip0">
<rect width="106" height="106" fill="white"/>
</clipPath>
</defs>
</svg>
