<svg width="106" height="106" viewBox="0 0 106 106" fill="none" xmlns="http://www.w3.org/2000/svg">
<g clip-path="url(#clip0)">
<path d="M77.0043 45.8865V25.8263C77.0043 25.2522 76.739 24.7216 76.3638 24.3019L53.8734 0.684982C53.4537 0.243423 52.8569 0 52.2608 0H16.6029C10.02 0 4.76172 5.36826 4.76172 11.952V79.3787C4.76172 85.9624 10.02 91.2426 16.6029 91.2426H44.7495C50.0733 100.079 59.7504 106 70.774 106C87.52 106 101.195 92.3909 101.195 75.623C101.218 60.9756 90.7015 48.7365 77.0043 45.8865ZM54.4702 7.75478L69.5593 23.6388H59.7722C56.856 23.6388 54.4702 21.2312 54.4702 18.315V7.75478ZM16.6029 86.8237C12.472 86.8237 9.18054 83.5096 9.18054 79.3787V11.952C9.18054 7.79845 12.472 4.41882 16.6029 4.41882H50.0514V18.315C50.0514 23.6832 54.4039 28.0576 59.7722 28.0576H72.5855V45.3115C71.9231 45.2897 71.3926 45.2234 70.8184 45.2234C63.1081 45.2234 56.0165 48.1841 50.6701 52.8237H22.6125C21.397 52.8237 20.4031 53.8176 20.4031 55.0323C20.4031 56.2478 21.397 57.2417 22.6125 57.2417H46.561C44.9921 59.4511 43.6884 61.6605 42.6727 64.0907H22.6125C21.397 64.0907 20.4031 65.0846 20.4031 66.3001C20.4031 67.5148 21.397 68.5096 22.6125 68.5096H41.2364C40.6841 70.719 40.397 73.171 40.397 75.623C40.397 79.5995 41.1701 83.5323 42.5619 86.8464H16.6029V86.8237ZM70.7966 101.604C56.4807 101.604 44.8376 89.9607 44.8376 75.6449C44.8376 61.329 56.4581 49.6859 70.7966 49.6859C85.1343 49.6859 96.7548 61.329 96.7548 75.6449C96.7548 89.9607 85.1125 101.604 70.7966 101.604Z" fill="white"/>
<path d="M22.6125 46.1736H44.9921C46.2076 46.1736 47.2015 45.1789 47.2015 43.9642C47.2015 42.7487 46.2076 41.7548 44.9921 41.7548H22.6125C21.397 41.7548 20.4031 42.7487 20.4031 43.9642C20.4031 45.1789 21.397 46.1736 22.6125 46.1736Z" fill="white"/>
<path d="M72.3647 59.3403C71.9449 58.8988 71.3708 58.6335 70.7521 58.6335C70.1334 58.6335 69.5592 58.8988 69.1395 59.3403L56.1928 73.2365C55.3533 74.1204 55.4197 75.5341 56.3036 76.3517C57.1875 77.1911 58.623 77.1248 59.4624 76.2417L68.609 66.4546V90.5794C68.609 91.7949 69.6029 92.7888 70.8184 92.7888C72.0331 92.7888 73.0278 91.7949 73.0278 90.5794V66.4546L82.1073 76.2417C82.5496 76.7051 83.1238 76.9485 83.7207 76.9485C84.2504 76.9485 84.7809 76.7496 85.2224 76.3517C86.1064 75.5122 86.1727 74.1204 85.3332 73.2365L72.3647 59.3403Z" fill="white"/>
</g>
<defs>
<clipPath id="clip0">
<rect width="106" height="106" fill="white"/>
</clipPath>
</defs>
</svg>
