<svg width="106" height="106" viewBox="0 0 106 106" fill="none" xmlns="http://www.w3.org/2000/svg">
<g clip-path="url(#clip0)">
<path d="M52.2447 51.0605C59.2595 51.0605 65.3337 48.5446 70.2968 43.5807C75.2599 38.6176 77.7758 32.545 77.7758 25.5294C77.7758 18.5163 75.2599 12.4429 70.296 7.47817C65.3321 2.5159 59.2587 0 52.2447 0C45.229 0 39.1564 2.5159 34.1933 7.47897C29.2302 12.442 26.7135 18.5155 26.7135 25.5294C26.7135 32.545 29.2302 38.6185 34.1941 43.5815C39.158 48.5438 45.2315 51.0605 52.2447 51.0605V51.0605Z" fill="#5C5C5C"/>
<path d="M96.9173 81.5085C96.7742 79.4431 96.4846 77.19 96.0585 74.8108C95.6282 72.4137 95.0742 70.1477 94.4111 68.0766C93.7261 65.936 92.7945 63.822 91.6429 61.7962C90.4476 59.6935 89.0437 57.8626 87.4683 56.356C85.8209 54.7798 83.804 53.5125 81.4716 52.5882C79.1474 51.6687 76.5716 51.2028 73.8163 51.2028C72.7343 51.2028 71.6878 51.6468 69.6668 52.9626C68.423 53.7737 66.9681 54.7118 65.3442 55.7494C63.9557 56.6341 62.0746 57.4631 59.7512 58.2136C57.4843 58.9471 55.1827 59.3191 52.911 59.3191C50.6394 59.3191 48.3386 58.9471 46.0693 58.2136C43.7483 57.4639 41.8672 56.635 40.4803 55.7502C38.8717 54.7224 37.416 53.7842 36.1536 52.9618C34.1351 51.646 33.0878 51.202 32.0057 51.202C29.2496 51.202 26.6747 51.6687 24.3512 52.589C22.0205 53.5117 20.0028 54.779 18.3538 56.3568C16.7792 57.8642 15.3745 59.6943 14.1808 61.7962C13.03 63.822 12.0984 65.9352 11.4126 68.0774C10.7503 70.1485 10.1963 72.4137 9.76605 74.8108C9.33986 77.1868 9.05034 79.4407 8.9072 81.511C8.76648 83.5392 8.69531 85.6443 8.69531 87.7704C8.69531 93.3036 10.4543 97.7831 13.9229 101.087C17.3486 104.347 21.8814 106 27.3936 106H78.4333C83.9455 106 88.4767 104.347 91.9033 101.087C95.3727 97.7855 97.1316 93.3052 97.1316 87.7696C97.1308 85.6338 97.0588 83.5271 96.9173 81.5085V81.5085Z" fill="#5C5C5C"/>
</g>
<defs>
<clipPath id="clip0">
<rect width="106" height="106" fill="white"/>
</clipPath>
</defs>
</svg>
