<svg width="104" height="106" viewBox="0 0 104 106" fill="none" xmlns="http://www.w3.org/2000/svg">
<path d="M101.629 0.327527C100.085 -0.436625 98.2294 0.181985 97.459 1.71339L69.1123 58.4565L63.5602 55.6755C58.9626 53.3737 53.3583 55.248 51.0563 59.8333L49.6665 62.6085L82.9896 79.2986L84.3794 76.5221C86.6748 71.9378 84.8405 66.3403 80.2216 64.0213L74.6684 61.2398L103.015 4.49734C103.782 2.96283 103.16 1.09768 101.629 0.327527Z" fill="white"/>
<path d="M34.8164 106C36.5315 106 37.9219 104.61 37.9219 102.895C37.9219 101.179 36.5315 99.7891 34.8164 99.7891C33.1013 99.7891 31.7109 101.179 31.7109 102.895C31.7109 104.61 33.1013 106 34.8164 106Z" fill="white"/>
<path d="M3.76172 87.3672C5.47682 87.3672 6.86719 85.9768 6.86719 84.2617C6.86719 82.5466 5.47682 81.1562 3.76172 81.1562C2.04662 81.1562 0.65625 82.5466 0.65625 84.2617C0.65625 85.9768 2.04662 87.3672 3.76172 87.3672Z" fill="white"/>
<path d="M16.1836 93.5781C17.8987 93.5781 19.2891 92.1878 19.2891 90.4727C19.2891 88.7576 17.8987 87.3672 16.1836 87.3672C14.4685 87.3672 13.0781 88.7576 13.0781 90.4727C13.0781 92.1878 14.4685 93.5781 16.1836 93.5781Z" fill="white"/>
<path d="M22.3945 99.7891H9.97266C8.25927 99.7891 6.86719 98.397 6.86719 96.6836C6.86719 94.9671 5.47821 93.5781 3.76172 93.5781C2.04522 93.5781 0.65625 94.9671 0.65625 96.6836C0.65625 101.821 4.83538 106 9.97266 106H22.3945C24.111 106 25.5 104.611 25.5 102.895C25.5 101.178 24.111 99.7891 22.3945 99.7891Z" fill="white"/>
<path d="M21.4908 80.3435C20.132 80.5132 19.0464 81.5535 18.8159 82.9001C18.5855 84.2497 19.2617 85.59 20.484 86.2026L35.323 93.6328C38.0009 94.9733 40.9606 95.507 43.8479 95.2006C43.5081 96.5774 44.1541 98.0544 45.4735 98.7185L59.3572 105.672C60.524 106.248 61.8766 106.045 62.8115 105.218C63.2974 104.785 73.8745 95.2685 80.0572 84.7799L46.5999 68.0228C39.1038 77.9829 21.681 80.3184 21.4908 80.3435Z" fill="white"/>
</svg>
