<svg width="108" height="108" viewBox="0 0 108 108" fill="none" xmlns="http://www.w3.org/2000/svg">
<g clip-path="url(#clip0)">
<path d="M53.5229 108C52.9334 108 52.3574 107.766 51.9299 107.343C51.3989 106.812 51.1649 106.047 51.3134 105.314L54.4949 89.406C54.5849 88.965 54.7919 88.5645 55.1114 88.254L90.1124 53.253C92.7404 50.625 97.0289 50.625 99.6569 53.253L106.02 59.616C108.652 62.2485 108.652 66.528 106.02 69.1605L71.0189 104.162C70.7084 104.477 70.3079 104.688 69.8669 104.778L53.9594 107.96C53.8154 107.987 53.6669 108 53.5229 108V108ZM58.7789 90.9495L56.3939 102.879L68.3234 100.494L102.843 65.9745C103.72 65.097 103.72 63.6705 102.843 62.793L96.4799 56.43C95.6024 55.5525 94.1759 55.5525 93.2984 56.43L58.7789 90.9495ZM69.4304 102.569H69.4754H69.4304Z" fill="white"/>
<path d="M42.75 94.5H11.25C5.0445 94.5 0 89.4555 0 83.25V24.75C0 18.5445 5.0445 13.5 11.25 13.5H20.25C21.492 13.5 22.5 14.508 22.5 15.75C22.5 16.992 21.492 18 20.25 18H11.25C7.5285 18 4.5 21.0285 4.5 24.75V83.25C4.5 86.9715 7.5285 90 11.25 90H42.75C43.992 90 45 91.008 45 92.25C45 93.492 43.992 94.5 42.75 94.5Z" fill="white"/>
<path d="M74.25 54C73.008 54 72 52.992 72 51.75V24.75C72 21.0285 68.9715 18 65.25 18H56.25C55.008 18 54 16.992 54 15.75C54 14.508 55.008 13.5 56.25 13.5H65.25C71.4555 13.5 76.5 18.5445 76.5 24.75V51.75C76.5 52.992 75.492 54 74.25 54Z" fill="white"/>
<path d="M51.75 27H24.75C21.0285 27 18 23.9715 18 20.25V11.25C18 10.008 19.008 9 20.25 9H27.225C28.269 3.87 32.8185 0 38.25 0C43.6815 0 48.231 3.87 49.275 9H56.25C57.492 9 58.5 10.008 58.5 11.25V20.25C58.5 23.9715 55.4715 27 51.75 27ZM22.5 13.5V20.25C22.5 21.4875 23.5125 22.5 24.75 22.5H51.75C52.9875 22.5 54 21.4875 54 20.25V13.5H47.25C46.008 13.5 45 12.492 45 11.25C45 7.5285 41.9715 4.5 38.25 4.5C34.5285 4.5 31.5 7.5285 31.5 11.25C31.5 12.492 30.492 13.5 29.25 13.5H22.5Z" fill="white"/>
<path d="M60.75 40.5H15.75C14.508 40.5 13.5 39.492 13.5 38.25C13.5 37.008 14.508 36 15.75 36H60.75C61.992 36 63 37.008 63 38.25C63 39.492 61.992 40.5 60.75 40.5Z" fill="white"/>
<path d="M60.75 54H15.75C14.508 54 13.5 52.992 13.5 51.75C13.5 50.508 14.508 49.5 15.75 49.5H60.75C61.992 49.5 63 50.508 63 51.75C63 52.992 61.992 54 60.75 54Z" fill="white"/>
<path d="M60.75 67.5H15.75C14.508 67.5 13.5 66.492 13.5 65.25C13.5 64.008 14.508 63 15.75 63H60.75C61.992 63 63 64.008 63 65.25C63 66.492 61.992 67.5 60.75 67.5Z" fill="white"/>
</g>
<defs>
<clipPath id="clip0">
<rect width="108" height="108" fill="white"/>
</clipPath>
</defs>
</svg>
