<svg width="108" height="108" viewBox="0 0 108 108" fill="none" xmlns="http://www.w3.org/2000/svg">
<g clip-path="url(#clip0)">
<path d="M100.125 74.32H98.9997V67.57C98.9997 61.3696 93.9512 56.3203 87.75 56.3203C81.5488 56.3203 76.5003 61.3696 76.5003 67.57V74.32H75.3747C71.0324 74.32 67.5 77.8524 67.5 82.1956V97.945C67.5 102.288 71.0324 105.821 75.3747 105.821H100.125C104.468 105.821 108 102.288 108 97.945V82.1956C108 77.8524 104.468 74.32 100.125 74.32V74.32ZM83.2503 67.57C83.2503 65.0907 85.2707 63.0703 87.75 63.0703C90.2293 63.0703 92.2497 65.0907 92.2497 67.57V74.32H83.2503V67.57Z" fill="white"/>
<path d="M60.75 82.1956C60.75 76.1204 64.4719 70.9047 69.7503 68.6956V67.57C69.7503 64.8344 70.4111 62.2694 71.5095 59.9425C68.1073 57.6609 64.0212 56.3203 59.6253 56.3203H21.3747C9.58942 56.3203 0 65.9097 0 77.695V93.4453C0 95.3083 1.51199 96.8203 3.375 96.8203H60.75V82.1956Z" fill="white"/>
<path d="M63.0003 24.8206C63.0003 37.2469 52.9264 47.32 40.5 47.32C28.0737 47.32 17.9998 37.2469 17.9998 24.8206C17.9998 12.3942 28.0737 2.32031 40.5 2.32031C52.9264 2.32031 63.0003 12.3942 63.0003 24.8206Z" fill="white"/>
</g>
<defs>
<clipPath id="clip0">
<rect width="108" height="108" fill="white"/>
</clipPath>
</defs>
</svg>
